{"title":"Will.I.Am Ft. Britney Spears - Scream And Shout","uid":7948606,"size":99568297,"categoryP":"video","categoryS":"music_videos","magnet":"?xt=urn:btih:b1bb855dbe5d975060d0aaee2e1871c2692904b1&amp;dn=Will.I.Am+Ft.+Britney+Spears+-+Scream+And+Shout&amp;tr=udp%3A%2F%2Ftracker.openbittorrent.com%3A80&amp;tr=udp%3A%2F%2Fopen.demonii.com%3A1337&amp;tr=udp%3A%2F%2Ftracker.coppersurfer.tk%3A6969&amp;tr=udp%3A%2F%2Fexodus.desync.com%3A6969","seeders":1,"leechers":0,"uploader":"MusicVideos-HQ","files":1,"time":1356198607,"description":"General\n\nFormat                         : MPEG-4\nFormat profile                 : Base Media\nCodec ID                       : isom\nFile size                      : 95.0 MiB\nDuration                       : 4mn 51s\nOverall bit rate mode          : Variable\nOverall bit rate               : 2 734 Kbps\nEncoded date                   : UTC 2012-12-09 17:32:26\nTagged date                    : UTC 2012-12-09 17:32:26\n\nVideo\nID                             : 1\nFormat                         : AVC\nFormat/Info                    : Advanced Video Codec\nFormat profile                 : &lt;a class=&quot;__cf_email__&quot; href=&quot;/cdn-cgi/l/email-protection&quot; data-cfemail=&quot;ca82a3ada28a86f9e4fa&quot;&gt;[email&amp;#160;protected]&lt;/a&gt;&lt;script cf-hash='f9e31' type=&quot;text/javascript&quot;&gt;\n/* &lt;![CDATA[ */!function(){try{var t=&quot;currentScript&quot;in document?document.currentScript:function(){for(var t=document.getElementsByTagName(&quot;script&quot;),e=t.length;e--;)if(t[e].getAttribute(&quot;cf-hash&quot;))return t[e]}();if(t&amp;&amp;t.previousSibling){var e,r,n,i,c=t.previousSibling,a=c.getAttribute(&quot;data-cfemail&quot;);if(a){for(e=&quot;&quot;,r=parseInt(a.substr(0,2),16),n=2;a.length-n;n+=2)i=parseInt(a.substr(n,2),16)^r,e+=String.fromCharCode(i);e=document.createTextNode(e),c.parentNode.replaceChild(e,c)}}}catch(u){}}();/* ]]&gt; */&lt;/script&gt;\nFormat settings, CABAC         : Yes\nFormat settings, ReFrames      : 2 frames\nCodec ID                       : avc1\nCodec ID/Info                  : Advanced Video Coding\nDuration                       : 4mn 51s\nBit rate                       : 2 543 Kbps\nMaximum bit rate               : 7 163 Kbps\nWidth                          : 720 pixels\nHeight                         : 480 pixels\nDisplay aspect ratio           : 16:9\nOriginal display aspect ratio  : 16:9\nFrame rate mode                : Constant\nFrame rate                     : 23.976 fps\nStandard                       : NTSC\nColor space                    : YUV\nChroma subsampling             : 4:2:0\nBit depth                      : 8 bits\nScan type                      : Progressive\nBits/(Pixel*Frame)             : 0.307\nStream size                    : 88.3 MiB (93%)\n\n\nAudio\nID                             : 2\nFormat                         : AAC\nFormat/Info                    : Advanced Audio Codec\nFormat profile                 : LC\nCodec ID                       : 40\nDuration                       : 4mn 51s\nBit rate mode                  : Variable\nBit rate                       : 188 Kbps\nMaximum bit rate               : 218 Kbps\nChannel(s)                     : 2 channels\nChannel positions              : Front: L R\nSampling rate                  : 44.1 KHz\nCompression mode               : Lossy\nStream size                    : 6.53 MiB (7%)","torrent":{"xt":"urn:btih:b1bb855dbe5d975060d0aaee2e1871c2692904b1","amp;dn":"Will.I.Am+Ft.+Britney+Spears+-+Scream+And+Shout","amp;tr":["udp%3A%2F%2Ftracker.openbittorrent.com%3A80","udp%3A%2F%2Fopen.demonii.com%3A1337","udp%3A%2F%2Ftracker.coppersurfer.tk%3A6969","udp%3A%2F%2Fexodus.desync.com%3A6969"],"infoHash":"b1bb855dbe5d975060d0aaee2e1871c2692904b1","infoHashBuffer":{"type":"Buffer","data":[177,187,133,93,190,93,151,80,96,208,170,238,46,24,113,194,105,41,4,177]},"announce":[],"urlList":[]}}